<svg width="320" height="200" xmlns="http://www.w3.org/2000/svg">
 <!-- Created with Method Draw - http://github.com/duopixel/Method-Draw/ -->
 <style>path {
                fill: ghostwhite;
                stroke: ghostwhite;
            }
            text {
            fill: deepskyblue;</style>

 <g>
  <title>background</title>
  <rect fill="none" id="canvas_background" height="602" width="802" y="-1" x="-1"/>
 </g>
 <g>
  <title>Layer 1</title>
  <ellipse ry="90.26337" rx="157.10563" id="svg_2" cy="105.76482" cx="161.05263" stroke-width="0" stroke="#000" fill="#000000"/>
  <text fill="#000000" stroke-width="0" x="272.43126" y="241.44852" id="svg_1" font-size="24" font-family="'Palatino Linotype', 'Book Antiqua', Palatino, serif" text-anchor="start" xml:space="preserve" transform="translate(103.96990966796875,140.37510681152344) scale(1.0115162134170532,0.9025158882141113) translate(-103.96990966796875,-140.37510681152344) translate(103.70085906982422,140.23663330078125) scale(1.1534695625305176,1.1744335889816284) translate(-103.70085906982422,-140.23663330078125) matrix(14.243579285207943,0,0,9.192371718043752,-3857.6148665210158,-2028.791634931922) " stroke="#FFFA8D">K</text>
  <path fill="#000000" stroke-width="4" d="m222.63472,66.93271l26.3715,-33.19832l26.3715,33.19832l-52.74299,0l-0.00001,0z" id="svg_17" transform="rotate(17.868803024291992 249.00621032714838,50.333549499511705) " stroke="#000000"/>
  <path fill="#000000" stroke-width="4" d="m186.14109,84.06148l28.57942,-37.45585l28.57942,37.45585l-57.15884,0z" id="svg_26" transform="rotate(17.868803024291992 214.7205047607422,65.33355712890625) " stroke="#000000"/>
  <path fill="#000000" stroke-width="4" d="m221.1736,183.78307l24.12646,-44.264l24.12646,44.264l-48.25292,0z" id="svg_27" transform="rotate(-78.2581787109375 245.30004882812497,161.6510467529297) " stroke="#000000"/>
  <path fill="#000000" stroke-width="4" d="m181.88676,167.06891l32.46093,-40.83571l32.46094,40.83571l-64.92187,0z" id="svg_29" transform="rotate(-78.2581787109375 214.34768676757812,146.65106201171878) " stroke="#000000"/>
 </g>
</svg>